<svg width="125" height="84" viewBox="0 0 125 84" fill="none" xmlns="http://www.w3.org/2000/svg">
<g clip-path="url(#clip0_6798_82800)">
<path d="M30.8252 21.3984C30.8252 20.4298 31.6104 19.6445 32.579 19.6445H86.0712C87.0399 19.6445 87.8251 20.4298 87.8251 21.3984V53.8907C87.8251 54.8593 87.0399 55.6445 86.0712 55.6445H32.579C31.6104 55.6445 30.8252 54.8593 30.8252 53.8907V21.3984Z" fill="#181C21"/>
<rect x="30.8254" y="25.0469" width="56.9999" height="7.2" fill="#52525B"/>
<path d="M109.746 10.6572L93.8787 12.1799C92.85 12.2786 92.3864 13.5184 93.0978 14.268L106.617 28.5113C107.329 29.2608 108.591 28.8623 108.743 27.8402L111.091 12.0742C111.209 11.277 110.548 10.5803 109.746 10.6572Z" fill="#00996E"/>
<path d="M14.1443 55.9901L41.9791 31.369C42.445 30.9569 43.1441 30.9537 43.6137 31.3616L63.501 48.6314C63.9527 49.0237 64.62 49.0375 65.0876 48.6643L105.273 16.5917" stroke="#00996E" stroke-width="7.44011"/>
<path d="M51.2329 39.6484C51.2329 38.6798 52.0181 37.8945 52.9868 37.8945H106.479C107.448 37.8945 108.233 38.6798 108.233 39.6484V72.1407C108.233 73.1093 107.448 73.8945 106.479 73.8945H52.9868C52.0181 73.8945 51.2329 73.1093 51.2329 72.1407V39.6484Z" fill="#A5E3B9"/>
<path d="M96.0767 67.9883L102.23 67.9883" stroke="white" stroke-width="3" stroke-linecap="round"/>
<path d="M57.6738 44.3105L59.3249 44.3105" stroke="white" stroke-width="3" stroke-linecap="round"/>
</g>
<defs>
<clipPath id="clip0_6798_82800">
<rect width="102" height="66" fill="white" transform="translate(11.5 9)"/>
</clipPath>
</defs>
</svg>
